# xmcd
#
# Track frame offsets:
#	150
#	13484
#	28408
#	42753
#	58217
#	78184
#	94077
#	107626
#	122672
#	137102
#	152595
#	172856
#
# Disc length: 2520 seconds
#
# Revision: 1
# Processed by: cddbd v1.5.1PL2 Copyright (c) Steve Scherf et al.
# Submitted via: audiograbber 1.83.01
#
DISCID=9909d60c
DTITLE=Various Artist - Cb20165
DYEAR=1900
DGENRE=Country
TTITLE0=Jackson, Alan - She Just Started Liking Cheatin' Songs (Vocals)
TTITLE1=Reeves, Julie - What I Need (Vocals)
TTITLE2=Lawrence, Tracy - Lessons Learned (Vocals)
TTITLE3=Wynonna - Can't Nobody Love You (Like I Do) (Vocals)
TTITLE4=Willis, Mark - Back At One (Vocals)
TTITLE5=McEntire, Reba - 'Til I Said It To You (Vocals)
TTITLE6=Jackson, Alan - She Just Started Liking Cheatin' Songs
TTITLE7=Reeves, Julie - What I Need
TTITLE8=Lawrence, Tracy - Lessons Learned
TTITLE9=Wynonna - Can't Nobody Love You (Like I Do)
TTITLE10=Willis, Mark - Back At One
TTITLE11=McEntire, Reba - 'Til I Said It To You
EXTD=
EXTT0=
EXTT1=
EXTT2=
EXTT3=
EXTT4=
EXTT5=
EXTT6=
EXTT7=
EXTT8=
EXTT9=
EXTT10=
EXTT11=
PLAYORDER=
